<?xml version="1.0" encoding="UTF-8"?> <svg xmlns="http://www.w3.org/2000/svg" width="60" height="60" viewBox="0 0 60 60" fill="none"><g clip-path="url(#clip0)"><path d="M59.7426 4.56226C59.3991 4.21948 58.8425 4.21948 58.4991 4.56226L46.2155 16.8301L44.9721 15.5881C44.8057 15.423 44.5851 15.3317 44.3506 15.3317C44.1163 15.3317 43.8947 15.4228 43.7293 15.5881C43.5629 15.7543 43.4714 15.9744 43.4714 16.2086C43.4714 16.444 43.5628 16.6641 43.7293 16.8304L45.0566 18.1567L39.9064 25.069C39.7515 25.2768 39.5237 25.4017 39.2649 25.4206C39.1618 25.4285 39.0611 25.4179 38.9653 25.3914L39.3268 25.0299C39.67 24.6866 39.67 24.1301 39.3267 23.787C38.9836 23.4439 38.427 23.4437 38.0838 23.7871L37.6418 24.2292L37.3276 23.9155L37.77 23.4732C38.1132 23.1298 38.1132 22.5734 37.77 22.2301C37.4266 21.887 36.8702 21.887 36.527 22.2301L36.0838 22.6734L35.7697 22.3595L36.213 21.9163C36.5564 21.5731 36.5564 21.0166 36.2131 20.6734C35.8698 20.3302 35.3132 20.3301 34.9702 20.6733L34.5722 21.0713C34.5193 20.9461 34.4956 20.8094 34.5059 20.6676C34.5248 20.4092 34.6499 20.1817 34.858 20.0269L42.3888 14.43L42.3884 14.4296C42.4224 14.4044 42.4552 14.3774 42.4858 14.3472C42.488 14.345 42.4898 14.3425 42.492 14.3403L55.3491 1.49909C55.6925 1.15609 55.6925 0.600149 55.3491 0.257141C55.0057 -0.0856323 54.449 -0.0856323 54.1057 0.257141L41.2869 13.0598L33.808 18.6181C33.1927 19.0753 32.8078 19.7758 32.7519 20.5397C32.6961 21.3037 32.9751 22.0525 33.5175 22.5941L37.3359 26.4078C37.8327 26.9037 38.5034 27.1792 39.2004 27.1792C39.2643 27.1792 39.3286 27.1769 39.3929 27.1723C40.1579 27.1165 40.8593 26.7321 41.317 26.1175L46.8822 18.6481L59.7424 5.80409C60.0857 5.4612 60.0857 4.90527 59.7426 4.56226Z" fill="#101010"></path><path d="M32.8634 27.0646C30.733 24.9369 27.7355 24.0247 24.8154 24.5521C20.8628 23.954 16.8336 25.2708 14.007 28.0937L0.257458 41.8257C-0.0859009 42.1687 -0.0859009 42.7247 0.257458 43.0677C0.429138 43.2391 0.654255 43.3248 0.879255 43.3248C1.10426 43.3248 1.32926 43.2391 1.50105 43.0677L15.2503 29.3356C16.7774 27.8107 18.7131 26.797 20.7837 26.3804C20.5167 26.5933 20.2594 26.8203 20.0147 27.0646L12.0371 35.032C11.8519 35.2171 11.7593 35.4722 11.7827 35.7321C12.0207 38.3712 13.0125 40.8757 14.6524 42.9714C14.9577 43.3588 15.5094 43.4172 15.8869 43.1224C16.2711 42.8225 16.338 42.2741 16.0392 41.8895C14.6958 40.1719 13.8446 38.1276 13.5775 35.9768L21.2573 28.3067C24.1168 25.4509 28.7485 25.4396 31.6193 28.3067C34.5025 31.1889 34.4494 35.8267 31.6193 38.6558L23.8493 46.416C21.8787 46.1373 19.9877 45.36 18.3792 44.1703C17.9843 43.876 17.4337 43.9696 17.1496 44.3517C16.8613 44.7404 16.9432 45.2919 17.3325 45.5799C19.3066 47.0435 21.6384 47.9531 24.0744 48.2132C24.105 48.2165 24.1365 48.2178 24.1683 48.2178C24.4027 48.2178 24.6231 48.1264 24.7896 47.9603L32.8632 39.8979C33.106 39.6554 33.3316 39.4004 33.5432 39.1357C33.1247 41.1999 32.1104 43.129 30.5858 44.6517L16.7193 58.5009C16.3759 58.8439 16.3759 59.3999 16.7193 59.7429C16.8909 59.9142 17.1161 60 17.3411 60C17.5659 60 17.7911 59.9142 17.9628 59.7429L31.8295 45.8937C34.6578 43.0689 35.9759 39.0416 35.3748 35.092C35.8965 32.182 34.9924 29.191 32.8634 27.0646Z" fill="#101010"></path><path d="M11.3715 57.0921C7.60535 55.5115 4.55121 52.4411 2.99215 48.6677C2.80687 48.2191 2.29289 48.0059 1.84418 48.1911C1.39558 48.3765 1.18219 48.8905 1.36758 49.3391C3.10242 53.5376 6.50086 56.9542 10.6914 58.713C10.8025 58.7595 10.9178 58.7817 11.0311 58.7817C11.3745 58.7817 11.7007 58.579 11.8419 58.2426C12.0296 57.7951 11.8192 57.2799 11.3715 57.0921Z" fill="#101010"></path></g><defs><clipPath id="clip0"><rect width="60" height="60" fill="white"></rect></clipPath></defs></svg> 