<?xml version="1.0" encoding="UTF-8"?> <svg xmlns="http://www.w3.org/2000/svg" width="60" height="60" viewBox="0 0 60 60" fill="none"><g clip-path="url(#clip0)"><path d="M59.2169 0.781758C59.214 0.778945 59.2108 0.776484 59.208 0.773672C58.7117 0.281836 58.0278 0 57.3297 0H57.3262C56.7228 0 56.1322 0.207422 55.6635 0.583477C49.2827 5.67996 42.8784 10.9405 36.6278 16.2186C35.1078 17.502 33.5866 18.7954 32.0668 20.0959L14.7139 2.74324C13.0004 1.02996 10.2125 1.0302 8.49912 2.74324L0.257676 10.9848C-0.0855664 11.3282 -0.0855664 11.8846 0.257676 12.2278C0.600918 12.5709 1.15744 12.5709 1.50057 12.2278L7.25623 6.47227L8.514 7.73004L2.75846 13.4856C2.41521 13.8289 2.41521 14.3854 2.75846 14.7286C2.93002 14.9002 3.15502 14.9859 3.3799 14.9859C3.60478 14.9859 3.82978 14.9002 4.00135 14.7286L9.75701 8.97305L11.0148 10.2308L5.25912 15.9864C4.91588 16.3297 4.91588 16.8861 5.25912 17.2294C5.43068 17.4009 5.65568 17.4867 5.88057 17.4867C6.10545 17.4867 6.33045 17.4009 6.50201 17.2294L12.2577 11.4737L13.5154 12.7315L7.7599 18.487C7.41666 18.8304 7.41666 19.3868 7.7599 19.73C7.93146 19.9016 8.15646 19.9874 8.38135 19.9874C8.60623 19.9874 8.83123 19.9016 9.00279 19.73L14.7583 13.9745L16.0161 15.2323L10.2606 20.9878C9.91732 21.3312 9.91732 21.8876 10.2606 22.2308C10.4321 22.4024 10.6571 22.4882 10.882 22.4882C11.1069 22.4882 11.3319 22.4024 11.5035 22.2308L17.259 16.4753L18.5168 17.733L12.7612 23.4886C12.418 23.832 12.418 24.3884 12.7612 24.7316C12.9328 24.9032 13.1578 24.9889 13.3827 24.9889C13.6076 24.9889 13.8326 24.9032 14.0041 24.7316L19.7597 18.9761L21.0174 20.2338L15.2619 25.9894C14.9187 26.3327 14.9187 26.8891 15.2619 27.2324C15.4335 27.4039 15.6585 27.4897 15.8833 27.4897C16.1082 27.4897 16.3332 27.4039 16.5048 27.2324L22.2603 21.4768L23.5182 22.7347L17.7627 28.4903C17.4194 28.8336 17.4194 29.39 17.7627 29.7333C17.9342 29.9048 18.1592 29.9906 18.3841 29.9906C18.609 29.9906 18.834 29.9048 19.0056 29.7333L24.7612 23.9776L26.0633 25.2797C23.3646 27.6299 20.6798 29.994 18.0253 32.3611C18.0241 32.3611 18.0241 32.3611 18.0241 32.3624C17.2356 33.0638 16.3754 33.8716 15.5269 34.6369C15.007 35.0129 15.106 35.674 15.364 35.9319C15.364 35.9319 15.364 35.9331 15.3651 35.9331C16.2112 36.9573 16.6788 38.2651 16.6788 39.6173C16.6788 41.1982 16.0706 42.6771 14.9656 43.781C14.9545 43.7921 12.3263 46.4204 12.3149 46.4318C8.49279 50.3429 1.76189 47.674 1.75803 42.1348C1.76037 38.7718 4.47642 35.9943 7.90791 35.9918C9.77693 35.993 11.5219 36.825 12.6949 38.2723C13.0131 38.6644 13.5972 38.7068 13.9676 38.3707C13.9722 38.3672 13.9758 38.3637 13.9804 38.359L13.9887 38.3518C14.4003 37.9818 14.3713 37.3148 13.9113 36.9854C12.409 35.237 10.2234 34.234 7.91377 34.234H7.90205C3.50775 34.234 -0.00482423 37.8123 0.000332019 42.1348C-0.00353517 45.3919 1.98689 48.2688 4.93146 49.4648C6.6799 50.1729 8.59521 50.2216 10.3254 49.667C8.67631 54.797 12.5143 60 17.8487 60H17.8581C22.217 60 25.7694 56.4713 25.7646 52.0945C25.7669 50.0145 24.9654 48.0516 23.5111 46.5655C23.5119 46.5646 25.3057 44.5254 25.3057 44.5254C28.4721 41.0019 31.6042 37.4624 34.6983 33.9143L36.0225 35.2385L30.2669 40.9941C29.9237 41.3374 29.9237 41.8938 30.2669 42.2371C30.4386 42.4086 30.6636 42.4944 30.8885 42.4944C31.1134 42.4944 31.3384 42.4086 31.5101 42.2371L37.2656 36.4815L38.5234 37.7393L32.7678 43.4948C32.4246 43.8382 32.4246 44.3946 32.7678 44.7379C32.9395 44.9094 33.1645 44.9952 33.3894 44.9952C33.6143 44.9952 33.8393 44.9094 34.011 44.7379L39.7665 38.9823L41.0242 40.24L35.2686 45.9955C34.9254 46.3389 34.9254 46.8953 35.2686 47.2385C35.4403 47.4101 35.6653 47.4959 35.8902 47.4959C36.1151 47.4959 36.3401 47.4101 36.5117 47.2385L42.2673 41.483L43.5249 42.7406L37.7694 48.4963C37.4262 48.8396 37.4262 49.3961 37.7694 49.7393C37.9411 49.9109 38.1661 49.9966 38.391 49.9966C38.6158 49.9966 38.8408 49.9109 39.0125 49.7393L44.7681 43.9836L46.0258 45.2414L40.2703 50.997C39.927 51.3403 39.927 51.8967 40.2703 52.24C40.442 52.4115 40.667 52.4973 40.8919 52.4973C41.1167 52.4973 41.3417 52.4115 41.5134 52.24L47.269 46.4844L48.5266 47.7421L42.7711 53.4976C42.4278 53.841 42.4278 54.3974 42.7711 54.7406C42.9428 54.9122 43.1678 54.998 43.3926 54.998C43.6175 54.998 43.8425 54.9122 44.0142 54.7406L49.7697 48.9851L51.0274 50.2427L45.2719 55.9983C44.9286 56.3416 44.9286 56.898 45.2719 57.2413C45.4435 57.4129 45.6685 57.4986 45.8934 57.4986C46.1183 57.4986 46.3433 57.4129 46.515 57.2413L52.2705 51.4857L53.5282 52.7434L47.7726 58.4989C47.4294 58.8423 47.4294 59.3987 47.7726 59.742C47.9443 59.9135 48.1693 59.9993 48.3942 59.9993C48.6191 59.9993 48.8441 59.9135 49.0158 59.742L55.3919 53.3657C55.3922 53.3654 55.3925 53.3651 55.3929 53.3648C55.3932 53.3646 55.3935 53.3643 55.3937 53.3639L57.2572 51.5004C58.0872 50.6704 58.5444 49.5668 58.5444 48.3929C58.5444 47.2191 58.0872 46.1155 57.2573 45.2855L39.8852 27.9146C46.624 20.0535 53.1567 12.1685 59.416 4.33477C60.2654 3.27176 60.1796 1.74434 59.2169 0.781758ZM8.49924 5.22926L9.74213 3.98637C10.7701 2.9584 12.4429 2.9584 13.471 3.98637L30.729 21.2445C29.6156 22.2009 28.5031 23.16 27.3929 24.1232L8.49924 5.22926ZM56.014 46.5293C56.512 47.0272 56.7863 47.6893 56.7863 48.3936C56.7863 49.0979 56.512 49.76 56.014 50.258L54.7711 51.5009C54.1903 50.9203 37.1021 33.832 35.8551 32.5852C36.8196 31.475 37.7808 30.3642 38.7372 29.2527L56.014 46.5293ZM24.4872 42.8044C24.0613 42.4782 22.9255 41.9136 22.7366 40.31C22.6838 39.8672 22.31 39.5343 21.8659 39.5343C21.3349 39.5343 20.9303 39.9954 20.9905 40.5164C20.9917 40.5164 20.9917 40.5164 20.9917 40.5164C21.1592 41.9495 21.9374 43.2164 23.1256 43.9909C23.1878 44.032 23.2499 44.0741 23.3143 44.121C22.7047 44.8165 22.2015 45.4021 21.6245 46.0393C21.4639 46.2175 21.3819 46.4576 21.4006 46.6966C21.4182 46.9357 21.5366 47.1607 21.7229 47.3119C23.1979 48.516 24.0055 50.2489 24.0069 52.0944C24.0044 55.4816 21.2757 58.2397 17.8547 58.2421C14.4733 58.2376 11.7024 55.5124 11.7024 52.0944C11.7064 49.3127 13.4658 47.823 13.6009 47.6319L16.2083 45.0245C17.6448 43.588 18.4371 41.6446 18.4371 39.6173C18.4383 38.1361 18.014 36.7052 17.2126 35.4819C17.9007 34.8526 18.4992 34.2942 19.1942 33.6748L19.1978 33.6701C38.2541 16.6788 56.5362 2.07293 56.8797 1.87617C56.6441 2.11184 22.3522 36.3889 22.194 36.5672C21.8717 36.9305 21.9057 37.4871 22.2678 37.8082C22.6318 38.1323 23.1893 38.0944 23.5088 37.7344C23.614 37.6146 57.8716 3.36949 58.1228 3.11836C58.0509 3.2448 43.8964 21.1733 24.4872 42.8044Z" fill="#101010"></path><path d="M11.0187 39.0323C8.24637 36.2602 3.51609 38.2577 3.51633 42.1391C3.51633 43.3123 3.97371 44.4156 4.80422 45.246C5.66097 46.1026 6.78598 46.5307 7.91144 46.5307C9.03656 46.5307 10.162 46.1024 11.0187 45.246C12.7339 43.5311 12.7342 40.7474 11.0187 39.0323ZM9.7759 44.0028C8.74781 45.0305 7.07508 45.0307 6.04699 44.0028C4.40051 42.3565 5.5534 39.5044 7.91144 39.5044C10.2763 39.5045 11.4149 42.3641 9.7759 44.0028Z" fill="#101010"></path><path d="M17.8548 47.7012C16.0477 47.7012 14.4953 48.7388 13.8034 50.4092C13.1081 52.0878 13.47 53.9242 14.7477 55.2017C15.5964 56.0501 16.6896 56.495 17.8186 56.495C18.389 56.495 18.9686 56.3813 19.5299 56.1488C21.2072 55.4539 22.2492 53.9004 22.2492 52.0947C22.2491 49.6722 20.2779 47.7012 17.8548 47.7012ZM18.857 54.5249C18.0707 54.8505 16.9048 54.8729 15.9904 53.9587C15.0755 53.0439 15.0997 51.8729 15.4273 51.0819C15.7522 50.2973 16.5606 49.4589 17.8547 49.4589C19.3085 49.4589 20.4913 50.6413 20.4913 52.0947C20.4913 53.3873 19.6471 54.1976 18.857 54.5249Z" fill="#101010"></path></g><defs><clipPath id="clip0"><rect width="60" height="60" fill="white"></rect></clipPath></defs></svg> 