<?xml version="1.0" encoding="UTF-8"?> <svg xmlns="http://www.w3.org/2000/svg" width="60" height="60" viewBox="0 0 60 60" fill="none"><g clip-path="url(#clip0)"><path d="M59.7968 28.4664L50.3878 14.6469C48.4201 11.757 45.4994 9.58939 42.1634 8.54325C38.8273 7.49735 35.1919 7.60891 31.9264 8.85801L23.335 12.1441C22.7305 12.3753 22.428 13.0526 22.6591 13.6571C22.8903 14.2616 23.5678 14.5638 24.1722 14.333L32.7636 11.047C38.5272 8.8429 44.9777 10.8653 48.4505 15.9659L54.2297 24.4539L43.8585 17.1494C41.6849 15.6185 38.8848 15.2168 36.3682 16.075L5.16306 26.7172C4.07696 27.0882 2.88305 26.5083 2.50219 25.4256C2.01469 24.0398 2.70762 22.543 4.07977 22.0182L14.817 17.9114C15.4216 17.6802 15.724 17.0028 15.4929 16.3984C15.2616 15.7938 14.584 15.4916 13.9798 15.7224L3.24246 19.8294C0.675697 20.8111 -0.620519 23.6108 0.291203 26.2032C1.09675 28.4934 3.62145 29.7193 5.91951 28.9354L37.1249 18.2933C38.9337 17.6763 40.9465 17.965 42.5092 19.0656L58.1537 30.084C58.3574 30.2275 58.5933 30.2978 58.8281 30.2978C59.1272 30.2978 59.4244 30.1836 59.6504 29.9611C60.0538 29.5637 60.1155 28.9345 59.7968 28.4664Z" fill="#101010"></path><path d="M20.1957 14.0882C19.9778 13.8691 19.6754 13.7449 19.3673 13.7449C19.0591 13.7449 18.7568 13.8691 18.5389 14.0882C18.3209 14.3062 18.1956 14.6075 18.1956 14.9166C18.1956 15.2248 18.3209 15.5272 18.5389 15.745C18.7569 15.963 19.0592 16.0884 19.3673 16.0884C19.6755 16.0884 19.9779 15.963 20.1957 15.745C20.4137 15.5271 20.5391 15.2247 20.5391 14.9166C20.5391 14.6073 20.4137 14.3062 20.1957 14.0882Z" fill="#101010"></path><path d="M50.5613 39.6915L50.5169 39.6778C49.1062 39.2399 47.892 38.3629 47.0357 37.178C47.915 36.4695 48.7627 35.7115 49.5725 34.9018C50.0301 34.4441 50.0301 33.7022 49.5725 33.2445C49.115 32.787 48.373 32.787 47.9154 33.2445C43.3197 37.8403 37.4495 40.698 31.1019 41.4889C31.0594 41.4918 31.0174 41.4967 30.9762 41.504C29.8213 41.6429 28.6511 41.714 27.4698 41.7141C27.4692 41.7141 27.4686 41.714 27.4679 41.714C27.4672 41.714 27.4668 41.7141 27.4661 41.7141C26.2848 41.7141 25.1146 41.6429 23.9596 41.504C23.9183 41.4966 23.8765 41.4917 23.8338 41.4889C17.4862 40.698 11.616 37.8403 7.02039 33.2445C6.56277 32.7871 5.82086 32.787 5.36324 33.2445C4.90562 33.7021 4.90562 34.444 5.36324 34.9018C6.17301 35.7115 7.02074 36.4696 7.9 37.178C7.04383 38.3629 5.82988 39.2401 4.42034 39.6773L4.3744 39.6915C3.756 39.8825 3.4096 40.5385 3.60061 41.1569C3.756 41.6601 4.21948 41.9832 4.71976 41.9832C4.83437 41.9832 4.95085 41.9662 5.06593 41.9307L5.11339 41.916C7.00106 41.3302 8.62692 40.1596 9.77818 38.5789C10.179 38.8551 10.5852 39.1216 10.9972 39.3779C10.4249 41.1734 9.0856 42.6243 7.30914 43.3291L6.94633 43.4729C6.34469 43.7115 6.05054 44.3926 6.28902 44.9941C6.47137 45.4541 6.91223 45.7341 7.37852 45.7341C7.52231 45.7341 7.66844 45.7074 7.81024 45.6513L8.1734 45.5073C10.4528 44.6029 12.2096 42.8033 13.0682 40.5581C13.5183 40.7922 13.9736 41.015 14.4341 41.2264C14.2998 43.2358 13.138 45.0295 11.3343 45.9705L11.2645 46.007C10.6906 46.3061 10.4679 47.0138 10.767 47.5877C10.976 47.9886 11.3842 48.2181 11.8069 48.2181C11.9894 48.2181 12.1747 48.1753 12.3476 48.0851L12.4178 48.0485C14.7189 46.8479 16.2754 44.6595 16.6834 42.1538C17.1804 42.336 17.6819 42.506 18.1883 42.6627C18.1213 44.5214 17.4005 46.288 16.1388 47.6645C15.7014 48.1415 15.7337 48.8826 16.2109 49.3201C16.4359 49.5263 16.7195 49.6281 17.0022 49.6281C17.3193 49.6281 17.6354 49.5001 17.8664 49.248C19.3849 47.5913 20.3011 45.4999 20.4976 43.2813C21.1711 43.4339 21.8513 43.5631 22.5371 43.6711C22.3853 45.4712 21.8328 47.2217 20.9138 48.7857L20.7561 49.0542C20.4283 49.6122 20.615 50.3303 21.1731 50.6581C21.3595 50.7676 21.5638 50.8197 21.7656 50.8197C22.1675 50.8197 22.5587 50.6127 22.777 50.2411L22.9346 49.9728C24.0177 48.1297 24.6744 46.0693 24.8654 43.9491C25.3403 43.988 25.8172 44.0161 26.2961 44.0336V50.9955C26.2961 51.6426 26.8207 52.1673 27.4678 52.1673C28.1149 52.1673 28.6396 51.6425 28.6396 50.9955V44.0336C29.1185 44.0161 29.5954 43.988 30.0702 43.9491C30.2612 46.0691 30.9178 48.1297 32.0009 49.9726L32.1586 50.2411C32.3769 50.6128 32.7682 50.8197 33.1701 50.8197C33.3717 50.8197 33.5761 50.7676 33.7626 50.6581C34.3206 50.3303 34.5072 49.6122 34.1795 49.0542L34.0217 48.7855C33.1028 47.2217 32.5504 45.4709 32.3985 43.6711C33.0843 43.563 33.7646 43.4339 34.438 43.2813C34.6344 45.4998 35.5507 47.5913 37.0693 49.248C37.3004 49.5001 37.6163 49.6281 37.9334 49.6281C38.2163 49.6281 38.4999 49.5262 38.7248 49.3201C39.2018 48.8828 39.2342 48.1415 38.7968 47.6645C37.5352 46.288 36.8144 44.5211 36.7473 42.6627C37.2537 42.506 37.7553 42.3362 38.2523 42.1538C38.6602 44.6597 40.2168 46.848 42.5182 48.0486L42.588 48.0851C42.7611 48.1753 42.9462 48.2181 43.1287 48.2181C43.5515 48.2181 43.9597 47.9885 44.1686 47.5877C44.4678 47.0138 44.2451 46.306 43.6712 46.007L43.6017 45.9706C41.7977 45.0296 40.6359 43.2358 40.5016 41.2264C40.9621 41.015 41.4174 40.7922 41.8674 40.5581C42.7259 42.8033 44.4827 44.6029 46.7623 45.5074L47.1254 45.6514C47.2672 45.7075 47.4133 45.7343 47.5571 45.7343C48.0234 45.7343 48.4643 45.4538 48.6466 44.9942C48.8852 44.3926 48.5909 43.7116 47.9893 43.473L47.6265 43.3291C45.8499 42.6242 44.5105 41.1733 43.9384 39.3778C44.3503 39.1215 44.7566 38.855 45.1573 38.5788C46.3086 40.1596 47.9346 41.3302 49.8236 41.9164L49.8696 41.9306C49.9848 41.9662 50.1013 41.9831 50.2158 41.9831C50.7162 41.9831 51.1795 41.6599 51.3349 41.1568C51.5262 40.5385 51.1799 39.8825 50.5613 39.6915Z" fill="#101010"></path></g><defs><clipPath id="clip0"><rect width="60" height="60" fill="white"></rect></clipPath></defs></svg> 