<?xml version="1.0" encoding="UTF-8"?> <svg xmlns="http://www.w3.org/2000/svg" width="25" height="24" viewBox="0 0 25 24" fill="none"><path d="M18.5098 22.6408L20.0376 21.1119C21.1248 20.0261 21.1262 18.2669 20.0383 17.1797L18.227 15.368C18.227 15.3677 18.227 15.3677 18.227 15.3677C16.7643 13.9054 14.2764 14.4959 13.6236 16.4549L13.5313 16.7311C10.5636 15.8586 8.25159 13.5469 7.37906 10.5789L7.6553 10.4869C9.61794 9.83237 10.2023 7.34295 8.74252 5.88318L6.93121 4.07259C5.8429 2.98356 4.08373 2.9861 2.99904 4.07223L1.46941 5.60079C0.142513 6.92804 -0.253563 8.90698 0.461474 10.6423C1.66962 13.5766 3.4201 16.2022 5.66405 18.4461C7.90801 20.6901 10.5336 22.4402 13.4676 23.6487C15.1956 24.3605 17.1767 23.9738 18.5098 22.6408ZM2.17539 9.93664C1.74673 8.89539 1.98423 7.70789 2.78001 6.91175L4.31001 5.38283C4.67169 5.02079 5.25675 5.0197 5.62025 5.38356L7.43192 7.19415C7.91887 7.6811 7.72264 8.51054 7.06951 8.72849L5.98229 9.0909C5.53879 9.23861 5.27486 9.6937 5.36645 10.1517C6.23681 14.5009 9.60925 17.8737 13.9585 18.7437C14.4161 18.8353 14.8719 18.5718 15.0196 18.1283L15.3821 17.041C15.6 16.3879 16.4291 16.1913 16.916 16.6783L18.7277 18.491C19.0898 18.8527 19.0908 19.4378 18.727 19.8009L17.1988 21.3302C16.4027 22.1267 15.2151 22.3642 14.1735 21.9348C8.77257 19.7108 4.39943 15.3376 2.17539 9.93664Z" fill="#FA6334"></path><path d="M12.9882 0.926835C12.9882 1.43877 13.4034 1.85367 13.915 1.85367C18.5148 1.85367 22.2565 5.59577 22.2565 10.1952C22.2565 10.7071 22.6718 11.122 23.1833 11.122C23.6953 11.122 24.1102 10.7071 24.1102 10.1952C24.1102 4.57371 19.5368 0 13.915 0C13.4034 0 12.9882 0.415266 12.9882 0.926835Z" fill="#FA6334"></path><path d="M13.915 5.561C16.4703 5.561 18.5492 7.63986 18.5492 10.1952C18.5492 10.7071 18.9644 11.122 19.476 11.122C19.9879 11.122 20.4028 10.7071 20.4028 10.1952C20.4028 6.6178 17.4927 3.70732 13.915 3.70732C13.4034 3.70732 12.9882 4.12259 12.9882 4.63416C12.9882 5.14609 13.4034 5.561 13.915 5.561Z" fill="#FA6334"></path><path d="M13.915 9.26832C14.4262 9.26832 14.8418 9.68431 14.8418 10.1952C14.8418 10.7071 15.2571 11.122 15.7687 11.122C16.2806 11.122 16.6955 10.7071 16.6955 10.1952C16.6955 8.66226 15.4483 7.41465 13.915 7.41465C13.4034 7.41465 12.9882 7.82992 12.9882 8.34148C12.9882 8.85342 13.4034 9.26832 13.915 9.26832Z" fill="#FA6334"></path></svg> 