<?xml version="1.0" encoding="UTF-8"?> <svg xmlns="http://www.w3.org/2000/svg" width="73" height="40" viewBox="0 0 73 40" fill="none"><path d="M4.19994 25.8547C4.50843 26.6623 4.93553 27.3528 5.48131 27.9263C6.02709 28.4998 6.67369 28.9387 7.42109 29.243C8.16857 29.5474 8.98126 29.6995 9.85924 29.6995C10.7135 29.6995 11.5143 29.5415 12.2618 29.2254C13.0093 28.9094 13.6618 28.4646 14.2194 27.8912C14.777 27.3176 15.21 26.633 15.5185 25.8371C15.827 25.0412 15.9812 24.1518 15.9812 23.1686V8H19.7185V32.5787H16.0168V30.2963C15.1863 31.1624 14.2075 31.8295 13.0804 32.2978C11.9532 32.7659 10.7372 33 9.43214 33C8.10328 33 6.86349 32.7717 5.71262 32.3153C4.56183 31.8588 3.56516 31.2093 2.72286 30.3666C1.88055 29.5238 1.21608 28.5116 0.729681 27.3294C0.243201 26.1473 0 24.8306 0 23.3792V8H3.73724V23.1686C3.73724 24.1518 3.89145 25.0471 4.19994 25.8547ZM26.1605 8V16.9536C26.991 16.1344 27.952 15.4848 29.0435 15.0049C30.135 14.525 31.3215 14.2851 32.6028 14.2851C33.9316 14.2851 35.1772 14.5308 36.34 15.0224C37.5027 15.514 38.5111 16.1811 39.3654 17.0239C40.2196 17.8666 40.8959 18.8614 41.3942 20.0084C41.8925 21.1555 42.1416 22.3727 42.1416 23.6601C42.1416 24.9475 41.8925 26.1589 41.3942 27.2942C40.8959 28.4295 40.2196 29.4186 39.3654 30.2611C38.5111 31.1039 37.5027 31.771 36.34 32.2626C35.1772 32.7542 33.9315 32.9999 32.6028 32.9999C31.3214 32.9999 30.1291 32.76 29.0257 32.2801C27.9223 31.8003 26.9554 31.1507 26.1249 30.3314V32.5786H22.5656V8H26.1605ZM26.5698 26.0829C26.8901 26.832 27.335 27.4874 27.9045 28.0492C28.474 28.611 29.1384 29.0558 29.8977 29.3835C30.6571 29.7112 31.4757 29.8751 32.3537 29.8751C33.2079 29.8751 34.0146 29.7112 34.7739 29.3835C35.5332 29.0558 36.1916 28.6111 36.7494 28.0492C37.307 27.4875 37.7519 26.832 38.0841 26.0829C38.4163 25.3338 38.5824 24.5263 38.5824 23.6601C38.5824 22.794 38.4163 21.9806 38.0841 21.2198C37.7519 20.459 37.307 19.7978 36.7494 19.236C36.1917 18.6742 35.5333 18.2353 34.7739 17.9193C34.0146 17.6033 33.2078 17.4452 32.3537 17.4452C31.4995 17.4452 30.6927 17.6032 29.9334 17.9193C29.1741 18.2353 28.5097 18.6742 27.9401 19.236C27.3707 19.7978 26.9198 20.459 26.5876 21.2198C26.2554 21.9806 26.0893 22.794 26.0893 23.6601C26.0893 24.5263 26.2495 25.3338 26.5698 26.0829V26.0829ZM44.1701 20.0436C44.6446 18.92 45.2972 17.931 46.1277 17.0766C46.9581 16.2222 47.9429 15.5492 49.0819 15.0577C50.2209 14.5661 51.4548 14.3204 52.7835 14.3204C54.0886 14.3204 55.2988 14.5545 56.4141 15.0226C57.5293 15.4907 58.4903 16.1403 59.297 16.9714C60.1038 17.8023 60.7327 18.7855 61.1834 19.9208C61.6343 21.0561 61.8597 22.2909 61.8597 23.6252V24.7839H47.0887C47.2074 25.5096 47.4447 26.1825 47.8006 26.8028C48.1566 27.4231 48.6014 27.9615 49.1353 28.4179C49.6692 28.8745 50.2743 29.2315 50.9506 29.4889C51.6268 29.7463 52.3446 29.8752 53.1039 29.8752C55.2633 29.8752 57.0073 28.9973 58.3361 27.2417L60.9344 29.1377C60.0327 30.3315 58.9175 31.2679 57.5887 31.9467C56.2599 32.6255 54.765 32.965 53.104 32.965C51.7514 32.965 50.4879 32.7308 49.3134 32.2627C48.1388 31.7946 47.1185 31.1391 46.2524 30.2963C45.3863 29.4536 44.7041 28.4646 44.2058 27.3294C43.7075 26.1941 43.4584 24.9593 43.4584 23.625C43.4582 22.361 43.6956 21.1672 44.1701 20.0436V20.0436ZM49.1709 18.6566C48.1624 19.4876 47.4921 20.5937 47.1599 21.9747H58.2293C57.9208 20.5937 57.2624 19.4876 56.2539 18.6566C55.2454 17.8257 54.0649 17.4102 52.7124 17.4102C51.3599 17.4102 50.1794 17.8257 49.1709 18.6566V18.6566ZM68.5866 19.0604C67.8273 19.8797 67.4476 20.9915 67.4476 22.3961V32.5787H63.8526V14.6714H67.4119V16.8835C67.8628 16.1578 68.4501 15.5843 69.1738 15.163C69.8975 14.7415 70.7576 14.5308 71.7543 14.5308H73V17.8314H71.5051C70.3187 17.8315 69.3458 18.2411 68.5866 19.0604Z" fill="white"></path></svg> 