<?xml version="1.0" encoding="UTF-8"?> <svg xmlns="http://www.w3.org/2000/svg" width="16" height="16" viewBox="0 0 16 16" fill="none"><g clip-path="url(#clip0)"><path d="M6.54506 9.60122C5.11333 8.16949 4.79006 6.73777 4.71713 6.16415C4.69675 6.00554 4.75133 5.84648 4.8648 5.7338L6.02342 4.5757C6.19385 4.40537 6.2241 4.13992 6.09635 3.93561L4.25161 1.07113C4.11028 0.844902 3.82008 0.763254 3.58152 0.882597L0.620057 2.27734C0.427141 2.37233 0.313671 2.5773 0.335574 2.79122C0.490747 4.26536 1.13342 7.88915 4.69463 11.4506C8.25583 15.0121 11.8791 15.6545 13.354 15.8097C13.5679 15.8316 13.7729 15.7181 13.8679 15.5252L15.2626 12.5637C15.3815 12.3257 15.3004 12.0363 15.0751 11.8947L12.2107 10.0504C12.0065 9.92256 11.741 9.95259 11.5706 10.1229L10.4125 11.2815C10.2998 11.3949 10.1407 11.4495 9.98213 11.4291C9.40851 11.3562 7.97678 11.0329 6.54506 9.60122Z" fill="#0057FF"></path><path d="M6.54506 9.60122C5.11333 8.16949 4.79006 6.73777 4.71713 6.16415C4.69675 6.00554 4.75133 5.84648 4.8648 5.7338L6.02342 4.5757C6.19385 4.40537 6.2241 4.13992 6.09635 3.93561L4.25161 1.07113C4.11028 0.844902 3.82008 0.763254 3.58152 0.882597L0.620057 2.27734C0.427141 2.37233 0.313671 2.5773 0.335574 2.79122C0.490747 4.26536 1.13342 7.88915 4.69463 11.4506C8.25583 15.0121 11.8791 15.6545 13.354 15.8097C13.5679 15.8316 13.7729 15.7181 13.8679 15.5252L15.2626 12.5637C15.3815 12.3257 15.3004 12.0363 15.0751 11.8947L12.2107 10.0504C12.0065 9.92256 11.741 9.95259 11.5706 10.1229L10.4125 11.2815C10.2998 11.3949 10.1407 11.4495 9.98213 11.4291C9.40851 11.3562 7.97678 11.0329 6.54506 9.60122Z" fill="#2035F2"></path><path d="M12.2303 8.82973C11.9447 8.82973 11.7131 8.59816 11.7131 8.31249C11.7107 6.17101 9.97525 4.43561 7.83377 4.43318C7.54811 4.43318 7.31653 4.20161 7.31653 3.91594C7.31653 3.63028 7.54811 3.3987 7.83377 3.3987C10.5463 3.40169 12.7446 5.59992 12.7476 8.31249C12.7476 8.59816 12.516 8.82973 12.2303 8.82973Z" fill="#0057FF"></path><path d="M12.2303 8.82973C11.9447 8.82973 11.7131 8.59816 11.7131 8.31249C11.7107 6.17101 9.97525 4.43561 7.83377 4.43318C7.54811 4.43318 7.31653 4.20161 7.31653 3.91594C7.31653 3.63028 7.54811 3.3987 7.83377 3.3987C10.5463 3.40169 12.7446 5.59992 12.7476 8.31249C12.7476 8.59816 12.516 8.82973 12.2303 8.82973Z" fill="#2035F2"></path><path d="M14.8165 8.82974C14.5309 8.82974 14.2993 8.59817 14.2993 8.3125C14.2953 4.74335 11.4029 1.85097 7.83377 1.84698C7.54811 1.84698 7.31653 1.61541 7.31653 1.32974C7.31653 1.04408 7.54811 0.8125 7.83377 0.8125C11.974 0.817061 15.3292 4.17226 15.3338 8.3125C15.3338 8.44968 15.2793 8.58124 15.1823 8.67825C15.0853 8.77525 14.9537 8.82974 14.8165 8.82974Z" fill="#0057FF"></path><path d="M14.8165 8.82974C14.5309 8.82974 14.2993 8.59817 14.2993 8.3125C14.2953 4.74335 11.4029 1.85097 7.83377 1.84698C7.54811 1.84698 7.31653 1.61541 7.31653 1.32974C7.31653 1.04408 7.54811 0.8125 7.83377 0.8125C11.974 0.817061 15.3292 4.17226 15.3338 8.3125C15.3338 8.44968 15.2793 8.58124 15.1823 8.67825C15.0853 8.77525 14.9537 8.82974 14.8165 8.82974Z" fill="#2035F2"></path></g><defs><clipPath id="clip0"><rect width="15" height="15" fill="white" transform="translate(0.33374 0.8125)"></rect></clipPath></defs></svg> 