<?xml version="1.0" encoding="UTF-8"?> <svg xmlns="http://www.w3.org/2000/svg" width="122" height="40" viewBox="0 0 122 40" fill="none"><path d="M13.518 13.1379L6.75899 17.2759L13.518 21.4138L6.75899 25.5517L0 21.3793L6.75899 17.2414L0 13.1379L6.75899 9L13.518 13.1379ZM6.72304 26.8621L13.482 22.7241L20.241 26.8621L13.482 31L6.72304 26.8621ZM13.518 21.3793L20.277 17.2414L13.518 13.1379L20.241 9L27 13.1379L20.241 17.2759L27 21.4138L20.241 25.5517L13.518 21.3793Z" fill="#0061FF"></path><path d="M33 11.2399H38.7763C42.4624 11.2399 45.5026 13.4096 45.5026 18.369V19.4151C45.5026 24.4133 42.6524 26.6605 38.8903 26.6605H33V11.2399ZM36.2301 14.0295V23.8321H38.7003C40.7904 23.8321 42.1964 22.4373 42.1964 19.3376V18.524C42.1964 15.4244 40.7143 14.0295 38.5862 14.0295H36.2301ZM49.7968 14.1845L50.2148 17.0904C50.7088 15.1144 51.9629 14.0683 54.243 14.0683H55.041V17.4004H53.7109C51.0888 17.4004 50.4428 18.3303 50.4428 20.9649V26.6993H47.2506V14.1845H49.7968ZM55.687 20.6937V20.345C55.687 16.1605 58.3091 13.8745 61.8813 13.8745C65.5295 13.8745 68.0756 16.1605 68.0756 20.345V20.6937C68.0756 24.8007 65.6055 27.0092 61.8813 27.0092C57.9291 26.9705 55.687 24.8007 55.687 20.6937ZM64.8074 20.655V20.345C64.8074 18.0203 63.6674 16.6255 61.8433 16.6255C60.0572 16.6255 58.8792 17.9041 58.8792 20.345V20.655C58.8792 22.9022 60.0192 24.1808 61.8433 24.1808C63.6674 24.1421 64.8074 22.9022 64.8074 20.655ZM69.7477 14.1845H72.4078L72.7118 16.548C73.3578 14.9594 74.7259 13.8745 76.74 13.8745C79.8561 13.8745 81.9082 16.1605 81.9082 20.3838V20.7325C81.9082 24.8395 79.6281 27.0092 76.74 27.0092C74.8019 27.0092 73.4718 26.1181 72.8258 24.6845V31H69.7096L69.7477 14.1845ZM78.6781 20.655V20.3838C78.6781 17.9041 77.424 16.6642 75.7519 16.6642C73.9658 16.6642 72.7878 18.059 72.7878 20.3838V20.6162C72.7878 22.8247 73.9278 24.2196 75.7139 24.2196C77.538 24.1808 78.6781 22.9797 78.6781 20.655ZM86.6204 24.3745L86.3544 26.6605H83.6183V10H86.7344V16.393C87.4184 14.7657 88.7865 13.8745 90.7246 13.8745C93.6507 13.9133 95.8168 15.9668 95.8168 20.1125V20.5C95.8168 24.6458 93.7647 27.0092 90.6486 27.0092C88.5965 26.9705 87.2664 26.0018 86.6204 24.3745ZM92.5487 20.5V20.19C92.5487 17.9041 91.3326 16.6255 89.6225 16.6255C87.8745 16.6255 86.6584 18.059 86.6584 20.2288V20.5C86.6584 22.8247 87.8365 24.1808 89.5845 24.1808C91.4466 24.1808 92.5487 22.9797 92.5487 20.5ZM97.1849 20.6937V20.345C97.1849 16.1605 99.807 13.8745 103.379 13.8745C107.027 13.8745 109.573 16.1605 109.573 20.345V20.6937C109.573 24.8007 107.065 27.0092 103.379 27.0092C99.427 26.9705 97.1849 24.8007 97.1849 20.6937ZM106.343 20.655V20.345C106.343 18.0203 105.203 16.6255 103.379 16.6255C101.593 16.6255 100.415 17.9041 100.415 20.345V20.655C100.415 22.9022 101.555 24.1808 103.379 24.1808C105.203 24.1421 106.343 22.9022 106.343 20.655ZM113.754 20.19L109.459 14.1845H113.146L115.616 17.9428L118.124 14.1845H121.772L117.402 20.1513L122 26.6605H118.39L115.578 22.5148L112.842 26.6605H109.079L113.754 20.19Z" fill="white"></path></svg> 