<?xml version="1.0" encoding="UTF-8"?> <svg xmlns="http://www.w3.org/2000/svg" width="40" height="40" viewBox="0 0 40 40" fill="none"><path d="M7.10938 27.0312C7.10938 34.1391 12.8922 40 20 40C27.1078 40 32.8906 34.1391 32.8906 27.0312C32.8906 19.9234 27.1078 14.1406 20 14.1406C12.8922 14.1406 7.10938 19.9234 7.10938 27.0312ZM21.1719 20V21.7352C22.5266 22.2238 23.5031 23.5098 23.5031 25.0308C23.5031 25.6787 22.9788 26.2027 22.3312 26.2027C21.6833 26.2027 21.1594 25.6787 21.1594 25.0308C21.1594 24.3842 20.6339 23.8589 19.9875 23.8589C19.3408 23.8589 18.8156 24.3842 18.8156 25.0308C18.8156 25.6775 19.3408 26.2027 19.9875 26.2027C21.926 26.2027 23.5031 27.7798 23.5031 29.7183C23.5031 31.2393 22.5266 32.5253 21.1719 33.0142V34.0625C21.1719 34.7101 20.6476 35.2344 20 35.2344C19.3524 35.2344 18.8281 34.7101 18.8281 34.0625V33.0219C17.4606 32.5403 16.4719 31.2488 16.4719 29.7183C16.4719 29.0707 16.9958 28.5464 17.6437 28.5464C18.2913 28.5464 18.8156 29.0707 18.8156 29.7183C18.8156 30.365 19.3408 30.8902 19.9875 30.8902C20.6339 30.8902 21.1594 30.365 21.1594 29.7183C21.1594 29.0717 20.6339 28.5464 19.9875 28.5464C18.0487 28.5464 16.4719 26.9696 16.4719 25.0308C16.4719 23.5004 17.4606 22.2092 18.8281 21.7273V20C18.8281 19.3524 19.3524 18.8281 20 18.8281C20.6476 18.8281 21.1719 19.3524 21.1719 20Z" fill="#106CD8"></path><path d="M20 0C19.7 0 19.4003 0.114441 19.1714 0.343323L14.4842 5.03082C14.1488 5.36621 14.0481 5.86975 14.2303 6.30798C14.411 6.74622 14.8391 7.03125 15.3128 7.03125H17.6562V11.9965C18.4222 11.8774 19.201 11.7969 20 11.7969C20.7989 11.7969 21.5777 11.8774 22.3437 11.9965V7.03125H24.6872C25.1608 7.03125 25.589 6.74622 25.7696 6.30798C25.9518 5.86975 25.8511 5.36621 25.5157 5.03082L20.8285 0.343323C20.5996 0.114441 20.3 0 20 0V0Z" fill="#106CD8"></path></svg> 