<?xml version="1.0" encoding="UTF-8"?> <svg xmlns="http://www.w3.org/2000/svg" width="40" height="40" viewBox="0 0 40 40" fill="#106CD8"><path d="M29.4759 21.1791C28.7896 20.6563 27.809 20.7888 27.2863 21.4754C26.4214 22.611 25.4 23.5696 24.4121 24.4964C22.8899 25.9249 21.4339 27.2921 20.8586 29.0624H13.6943C13.1191 27.2921 11.6631 25.9249 10.1412 24.4964C7.67505 22.1822 5.12531 19.789 5.12531 15.0988C5.12531 11.9213 6.38232 8.92322 8.66473 6.65759C10.9618 4.37731 13.9952 3.12487 17.2151 3.12487C17.2457 3.12487 17.2765 3.12487 17.307 3.12517H17.3189C18.1765 3.12517 18.8747 2.43334 18.8811 1.57427C18.8875 0.711227 18.1929 0.00657406 17.3302 0.000165351C13.2411 -0.0294368 9.37762 1.5468 6.46289 4.43987C3.58508 7.29663 2 11.082 2 15.0991C2 21.1422 5.46924 24.3978 8.0025 26.7751C9.75452 28.4194 10.8281 29.4888 10.8281 30.7031V35.3124C10.8281 37.8973 12.9311 40 15.5156 40H19.0312C21.6161 40 23.7188 37.8973 23.7188 35.3124V30.8224C23.7218 30.783 23.7249 30.7433 23.7249 30.7031C23.7249 29.4888 24.7985 28.4194 26.5505 26.7751C27.5811 25.808 28.7496 24.7115 29.7719 23.3691C30.295 22.6824 30.1622 21.7022 29.4759 21.1791ZM19.0312 36.875H15.5156C14.6541 36.875 13.9531 36.174 13.9531 35.3124V32.1874H20.5938V35.3124C20.5938 36.174 19.8931 36.875 19.0312 36.875ZM15.4332 9.46705C12.9595 10.2373 11.2972 12.4923 11.2972 15.078C11.2972 15.9411 10.5977 16.6405 9.73468 16.6405C8.87164 16.6405 8.17218 15.9411 8.17218 15.078C8.17218 11.1165 10.717 7.66254 14.5046 6.48334C15.3286 6.22699 16.2044 6.68689 16.4608 7.51086C16.7171 8.33484 16.2572 9.2107 15.4332 9.46705ZM36.6637 10.1464L35.1601 9.06269C35.1631 8.98456 35.1647 8.90613 35.1647 8.82801C35.1647 8.7334 35.1616 8.63849 35.1573 8.54389C35.1558 8.51276 35.154 8.48194 35.1522 8.45081C35.1503 8.42121 35.1494 8.3916 35.1473 8.36231L36.6985 7.17731C37.3098 6.71069 37.4904 5.86871 37.1245 5.19213L36.4214 3.89239C36.0536 3.21215 35.2437 2.90361 34.5168 3.16607L32.6696 3.83257C32.4373 3.65771 32.1926 3.50146 31.939 3.36077C31.9158 3.34826 31.8932 3.33513 31.87 3.32262C31.8068 3.28875 31.743 3.2564 31.679 3.22466C31.6445 3.20757 31.6103 3.19079 31.5755 3.17431C31.5462 3.16057 31.5172 3.14501 31.4876 3.13158L31.1553 1.28557C31.0213 0.541243 30.3737 -0.000139825 29.6175 -0.000139825H28.1331C27.354 -0.000139825 26.6939 0.573897 26.5859 1.34569L26.3356 3.13311C25.8754 3.34154 25.443 3.60491 25.0457 3.91833L23.2326 3.35222C22.5023 3.12426 21.7144 3.45843 21.3707 4.14202L20.6823 5.51196C20.331 6.21051 20.5504 7.06134 21.1956 7.50293L22.6723 8.51398C22.6674 8.61804 22.6644 8.72272 22.6644 8.82801C22.6644 8.92353 22.6674 9.01905 22.6717 9.11457C22.6732 9.14631 22.6754 9.17804 22.6772 9.20978C22.6793 9.24305 22.6805 9.27631 22.683 9.30958L21.1861 10.4955C20.5727 10.9816 20.4134 11.8465 20.8135 12.5191L21.5459 13.7505C21.9286 14.3935 22.7135 14.6752 23.4175 14.4219L25.1342 13.8048C25.5086 14.0896 25.9133 14.3309 26.3411 14.5244L26.6735 16.3704C26.8074 17.1145 27.455 17.6562 28.2112 17.6562H29.6175C30.3853 17.6562 31.039 17.0983 31.1605 16.3405L31.4482 14.5427C31.9707 14.3114 32.4581 14.0093 32.899 13.6431L34.6752 14.1686C35.4003 14.3831 36.1748 14.0474 36.5145 13.3721L37.1462 12.1157C37.4907 11.4296 37.2863 10.595 36.6637 10.1464ZM25.7946 8.65497C25.7949 8.64765 25.7958 8.64063 25.7961 8.6333C25.7994 8.58142 25.8037 8.52954 25.8098 8.47766C25.8101 8.47309 25.8107 8.46851 25.8113 8.46393C25.8177 8.4093 25.8257 8.35468 25.8351 8.30005C25.8354 8.297 25.8361 8.29364 25.8367 8.29059C25.8461 8.23657 25.8571 8.18256 25.8693 8.12885C25.9999 7.55939 26.2865 7.04883 26.6817 6.64477C26.6924 6.63379 26.7031 6.6225 26.7141 6.61181C26.7452 6.58069 26.7769 6.55047 26.8093 6.52087C26.8166 6.51416 26.8242 6.50744 26.8318 6.50104C26.8969 6.44275 26.964 6.3869 27.0339 6.33441C27.0397 6.32983 27.0452 6.32556 27.051 6.32129C27.0894 6.2926 27.1285 6.26452 27.1685 6.23767V6.23736C27.2457 6.18548 27.3253 6.13696 27.4071 6.09179C27.4166 6.08661 27.426 6.08111 27.4355 6.07592C27.4745 6.05487 27.5142 6.03442 27.5542 6.01519C27.5673 6.00879 27.5807 6.00299 27.5939 5.99658C27.6573 5.96698 27.7217 5.93982 27.787 5.91449C27.8139 5.9038 27.8408 5.89343 27.8679 5.88397C27.899 5.87298 27.9302 5.8623 27.9619 5.85223C28.0052 5.83819 28.0492 5.82537 28.0931 5.81347C28.355 5.74206 28.6302 5.7033 28.9144 5.7033C29.2043 5.7033 29.4844 5.74359 29.7509 5.81775C29.7951 5.82995 29.8387 5.84307 29.8824 5.85742C29.9071 5.86535 29.9318 5.87359 29.9565 5.88244C29.9953 5.89618 30.0334 5.91082 30.0716 5.92608C30.1049 5.93951 30.1378 5.95324 30.1702 5.96759C30.2095 5.98468 30.2483 6.00268 30.2867 6.0213C30.3136 6.03442 30.3398 6.04815 30.3661 6.06189C30.3969 6.07806 30.4271 6.09515 30.4576 6.11255C30.4818 6.12628 30.5062 6.13971 30.53 6.15405C30.5776 6.18304 30.6246 6.21325 30.6707 6.24469C30.6923 6.25964 30.7134 6.2749 30.7344 6.29016C30.7668 6.31335 30.7985 6.33716 30.83 6.36157C30.8489 6.37652 30.8681 6.39087 30.8867 6.40613C30.9328 6.44397 30.978 6.48272 31.0222 6.52331C31.0353 6.53491 31.0475 6.54742 31.0604 6.55963C31.0961 6.5932 31.1309 6.62768 31.1647 6.66339C31.5438 7.05707 31.8206 7.54932 31.9524 8.09741C31.9631 8.14227 31.9731 8.18744 31.9817 8.23261C31.9854 8.25 31.9881 8.2677 31.9915 8.2854C31.9988 8.32782 32.0052 8.36994 32.011 8.41236C32.0134 8.43067 32.0159 8.44898 32.018 8.46759C32.0232 8.51123 32.0269 8.55487 32.0302 8.59882C32.0314 8.6153 32.033 8.63178 32.0339 8.64856C32.0372 8.70838 32.0394 8.76819 32.0394 8.82831C32.0394 8.93604 32.0339 9.04438 32.0229 9.1518C32.0223 9.15638 32.0214 9.16095 32.0211 9.16553C32.0159 9.21375 32.0098 9.26197 32.0021 9.30988C31.9994 9.32789 31.9957 9.34589 31.9927 9.3639C31.9869 9.39747 31.9811 9.43073 31.9744 9.46399C31.8627 10.0017 31.6121 10.4888 31.2624 10.887C31.2172 10.9386 31.1708 10.989 31.1229 11.0369C31.1125 11.0476 31.1013 11.0576 31.0906 11.068C31.053 11.1046 31.0143 11.14 30.9752 11.1745C30.9542 11.1928 30.9337 11.2111 30.9124 11.2288C30.869 11.2651 30.8245 11.3002 30.7793 11.3341C30.7515 11.3549 30.7228 11.3747 30.6945 11.3945C30.6691 11.4119 30.6438 11.429 30.6185 11.4458C30.5724 11.4757 30.5254 11.5047 30.4778 11.5322C30.4485 11.5493 30.4192 11.5664 30.3893 11.5822C30.3582 11.599 30.3264 11.6152 30.2947 11.6311C30.2599 11.6478 30.2251 11.6643 30.1897 11.6799C30.1537 11.6964 30.1171 11.7119 30.0801 11.7266C30.035 11.7449 29.9892 11.7623 29.9431 11.7785C29.9211 11.7861 29.8989 11.7937 29.8766 11.801C29.8128 11.8215 29.7481 11.8407 29.6825 11.8572C29.4368 11.9198 29.1796 11.953 28.9147 11.953C28.6235 11.953 28.3425 11.9124 28.0751 11.8377C28.0318 11.8258 27.9891 11.8129 27.9467 11.7989C27.9207 11.7904 27.8948 11.7818 27.8688 11.7727C27.8319 11.7592 27.7953 11.7452 27.7587 11.7305C27.7178 11.7141 27.6772 11.697 27.6372 11.679C27.6055 11.6646 27.5737 11.6503 27.5423 11.635C27.5124 11.6204 27.4828 11.6048 27.4535 11.5892C27.4272 11.5755 27.4016 11.5609 27.376 11.5465C27.3326 11.5218 27.2899 11.4962 27.2481 11.4696C27.2179 11.4507 27.1877 11.4315 27.1584 11.4113C27.1315 11.393 27.105 11.3741 27.0787 11.3549C27.0528 11.3359 27.0272 11.3164 27.0015 11.2966C26.978 11.2783 26.9539 11.26 26.9307 11.241C26.888 11.2056 26.8462 11.1693 26.8053 11.1318C26.7852 11.1135 26.7659 11.0942 26.7464 11.0756C26.718 11.0482 26.6906 11.0204 26.6631 10.992C26.2828 10.5965 26.0057 10.1018 25.8748 9.55066C25.8647 9.50855 25.8553 9.46644 25.847 9.42371C25.8434 9.4051 25.8403 9.38648 25.837 9.36786C25.83 9.32666 25.8235 9.28516 25.8181 9.24366C25.8156 9.22504 25.8129 9.20642 25.8107 9.1875C25.8058 9.14417 25.8022 9.10083 25.7988 9.05719C25.7976 9.04071 25.7961 9.02423 25.7949 9.00745C25.7915 8.94794 25.7897 8.88782 25.7897 8.82801C25.7894 8.77033 25.7912 8.71265 25.7946 8.65497ZM12.5469 18.5155C13.4099 18.5155 14.1094 19.215 14.1094 20.078C14.1094 20.9411 13.4099 21.6405 12.5469 21.6405C11.6841 21.6405 10.9844 20.9411 10.9844 20.078C10.9844 19.215 11.6841 18.5155 12.5469 18.5155Z"></path></svg> 