<?xml version="1.0" encoding="UTF-8"?> <svg xmlns="http://www.w3.org/2000/svg" width="40" height="40" viewBox="0 0 40 40" fill="#106CD8"><path d="M38 8.67188V20.9375C38 24.3762 37.0219 27.8403 35.171 30.9546C34.73 31.6965 33.7715 31.9403 33.0296 31.4996C32.2877 31.0587 32.0439 30.0998 32.4846 29.3582C34.0486 26.7264 34.875 23.8147 34.875 20.9375V9.68781L20.4249 3.27332L6.125 9.68384V20.9375C6.125 29.2786 12.9765 36.875 20.5 36.875C23.159 36.875 25.7588 36.0059 28.018 34.3616C28.7156 33.8541 29.6931 34.0079 30.2009 34.7055C30.7087 35.4034 30.5546 36.3806 29.857 36.8884C27.0601 38.924 23.8243 40 20.5 40C18.1257 40 15.8036 39.4409 13.5978 38.3386C11.5385 37.3093 9.6745 35.8566 8.05798 34.021C4.84357 30.3714 3 25.6024 3 20.9375V8.67188C3 8.05634 3.36163 7.49787 3.92346 7.2461L19.7828 0.136721C20.1875 -0.0448584 20.6505 -0.0454688 21.0557 0.13428L37.0714 7.24365C37.6362 7.49451 38 8.0542 38 8.67188Z"></path><path d="M29.857 14.6454C30.3489 13.9365 30.1732 12.9626 29.4642 12.4707C28.7553 11.9785 27.7818 12.1545 27.2896 12.8635L20.3767 22.8235C20.1674 23.0618 19.9073 23.1137 19.7673 23.1229C19.6226 23.1326 19.3458 23.1143 19.1011 22.8867L14.9846 18.8153C14.3712 18.2086 13.3818 18.2138 12.7748 18.8275C12.1681 19.4409 12.1736 20.4303 12.787 21.0373L16.9166 25.1218C16.9236 25.1288 16.931 25.1355 16.9383 25.1425C17.6857 25.8542 18.6836 26.25 19.7099 26.25C19.7981 26.25 19.8869 26.2469 19.9754 26.2411C21.0936 26.1667 22.1376 25.6229 22.8395 24.7491C22.8624 24.7205 22.8843 24.6912 22.9051 24.6613L29.857 14.6454Z"></path></svg> 