<?xml version="1.0" encoding="UTF-8"?> <svg xmlns="http://www.w3.org/2000/svg" width="60" height="60" viewBox="0 0 60 60" fill="none"><g clip-path="url(#clip0)"><path fill-rule="evenodd" clip-rule="evenodd" d="M21 17V16H20H10V18H19V24H2V18H5V16H2V2H19V6H21V2H29V17V18H30H44V16H31V2H58V16H50V18H58V47H47H45H30V49H45V58H21V49H25V47H21V42H19V48V58H2V26H19V34H21V25V17ZM60 0H58H31H30H29H21H20H19H2H0V2V16V17V18V24V25V26V58V60H2H19H20H21H45H47V58V51V49H49H58H60V47V18V17V16V2V0Z" fill="#101010" fill-opacity="0.7"></path></g><defs><clipPath id="clip0"><rect width="60" height="60" fill="white"></rect></clipPath></defs></svg> 