<?xml version="1.0" encoding="UTF-8"?> <svg xmlns="http://www.w3.org/2000/svg" width="40" height="40" viewBox="0 0 40 40" fill="none"><g clip-path="url(#clip0)"><path d="M15 16.6667C19.6023 16.6667 23.3333 12.9357 23.3333 8.33333C23.3333 3.73096 19.6023 0 15 0C10.3976 0 6.66666 3.73096 6.66666 8.33333C6.66666 12.9357 10.3976 16.6667 15 16.6667Z" fill="#106CD8"></path><path d="M19.2233 34.6667C18.355 33.1633 18.5283 31.3117 19.5617 30C18.5283 28.6883 18.355 26.8383 19.2233 25.3333L20.5717 23C21.3133 21.715 22.6967 20.9167 24.1817 20.9167C24.385 20.9167 24.585 20.9317 24.7833 20.96C24.8383 20.8233 24.9083 20.695 24.9767 20.565C24.0767 20.21 23.105 20 22.0833 20H7.91667C3.55167 20 0 23.5517 0 27.9167V33.75C0 34.44 0.56 35 1.25 35H19.415L19.2233 34.6667Z" fill="#106CD8"></path><path d="M36.1717 30.7816C36.205 30.5233 36.25 30.2666 36.25 30C36.25 29.7316 36.2033 29.4766 36.1717 29.2183L37.6733 28.0816C38.0083 27.8283 38.1017 27.365 37.8917 27L36.5433 24.6666C36.3333 24.3033 35.885 24.1516 35.4983 24.315L33.77 25.0433C33.3483 24.7216 32.9 24.4383 32.405 24.2316L32.175 22.3966C32.1217 21.98 31.7683 21.6666 31.3483 21.6666H28.6533C28.2333 21.6666 27.8783 21.98 27.8267 22.3966L27.5967 24.2316C27.1017 24.4383 26.6517 24.7233 26.2317 25.0433L24.5033 24.315C24.1167 24.1516 23.6683 24.3016 23.4583 24.6666L22.11 27C21.9 27.3633 21.9933 27.8266 22.3283 28.0816L23.83 29.2183C23.7967 29.4766 23.7517 29.7333 23.7517 30C23.7517 30.2683 23.7983 30.5233 23.83 30.7816L22.3283 31.9183C21.9933 32.1716 21.9 32.635 22.11 33L23.4583 35.335C23.6683 35.6983 24.1167 35.85 24.5033 35.6866L26.2317 34.9566C26.6533 35.2783 27.1017 35.5616 27.5967 35.7683L27.8267 37.6033C27.8783 38.02 28.2317 38.3333 28.6517 38.3333H31.3467C31.7667 38.3333 32.1217 38.02 32.1733 37.6033L32.4033 35.7683C32.8983 35.5616 33.3483 35.2766 33.7683 34.9566L35.4967 35.685C35.8833 35.8483 36.3317 35.6983 36.5417 35.3333L37.89 32.9983C38.1 32.635 38.0067 32.1716 37.6717 31.9166L36.1717 30.7816ZM30 33.3333C28.1583 33.3333 26.6667 31.8416 26.6667 30C26.6667 28.1583 28.1583 26.6666 30 26.6666C31.8417 26.6666 33.3333 28.1583 33.3333 30C33.3333 31.8416 31.8417 33.3333 30 33.3333Z" fill="#106CD8"></path></g><defs><clipPath id="clip0"><rect width="40" height="40" fill="white"></rect></clipPath></defs></svg> 