<?xml version="1.0" encoding="UTF-8"?> <svg xmlns="http://www.w3.org/2000/svg" width="40" height="40" viewBox="0 0 40 40" fill="#106CD8"><path d="M11.2969 18.2812C11.2969 19.1443 10.5974 19.8438 9.73438 19.8438C8.87134 19.8438 8.17188 19.1443 8.17188 18.2812V16.7188C8.17188 15.8557 8.87134 15.1562 9.73438 15.1562C10.5974 15.1562 11.2969 15.8557 11.2969 16.7188V18.2812ZM15.9844 15.1562C15.1213 15.1562 14.4219 15.8557 14.4219 16.7188V18.2812C14.4219 19.1443 15.1213 19.8438 15.9844 19.8438C16.8474 19.8438 17.5469 19.1443 17.5469 18.2812V16.7188C17.5469 15.8557 16.8474 15.1562 15.9844 15.1562ZM11.2969 23.75C11.2969 22.887 10.5974 22.1875 9.73438 22.1875C8.87134 22.1875 8.17188 22.887 8.17188 23.75V25.3125C8.17188 26.1755 8.87134 26.875 9.73438 26.875C10.5974 26.875 11.2969 26.1755 11.2969 25.3125V23.75ZM17.5469 25.3125V23.75C17.5469 22.887 16.8474 22.1875 15.9844 22.1875C15.1213 22.1875 14.4219 22.887 14.4219 23.75V25.3125C14.4219 26.1755 15.1213 26.875 15.9844 26.875C16.8474 26.875 17.5469 26.1755 17.5469 25.3125ZM9.73438 29.2188C8.87134 29.2188 8.17188 29.9182 8.17188 30.7812V32.3438C8.17188 33.2068 8.87134 33.9062 9.73438 33.9062C10.5974 33.9062 11.2969 33.2068 11.2969 32.3438V30.7812C11.2969 29.9182 10.5974 29.2188 9.73438 29.2188ZM11.2969 9.6875C11.2969 8.82446 10.5974 8.125 9.73438 8.125C8.87134 8.125 8.17188 8.82446 8.17188 9.6875V11.25C8.17188 12.113 8.87134 12.8125 9.73438 12.8125C10.5974 12.8125 11.2969 12.113 11.2969 11.25V9.6875ZM17.5469 9.6875C17.5469 8.82446 16.8474 8.125 15.9844 8.125C15.1213 8.125 14.4219 8.82446 14.4219 9.6875V11.25C14.4219 12.113 15.1213 12.8125 15.9844 12.8125C16.8474 12.8125 17.5469 12.113 17.5469 11.25V9.6875ZM20.6719 9.6875V11.25C20.6719 12.113 21.3713 12.8125 22.2344 12.8125C23.0974 12.8125 23.7969 12.113 23.7969 11.25V9.6875C23.7969 8.82446 23.0974 8.125 22.2344 8.125C21.3713 8.125 20.6719 8.82446 20.6719 9.6875ZM36.5944 38.8376C35.9932 39.5764 35.1061 40 34.1603 40H18.9022C17.9512 40 17.0613 39.5767 16.4608 38.8388C15.8565 38.0963 15.6218 37.1317 15.8168 36.1923C16.3216 33.7607 17.6586 31.5482 19.5812 29.9622C20.3093 29.3616 21.1095 28.8617 21.9579 28.4711C21.0128 27.3972 20.4375 25.99 20.4375 24.4504C20.4375 21.0901 23.171 18.3566 26.5312 18.3566C29.8915 18.3566 32.625 21.0901 32.625 24.4504C32.625 25.99 32.0497 27.3972 31.1046 28.4711C31.953 28.8617 32.7532 29.3613 33.4813 29.9622C35.3655 31.5164 36.6869 33.6725 37.2142 36.0464C37.2264 36.0876 37.2368 36.1292 37.2457 36.1716C37.4416 37.1164 37.2042 38.0881 36.5944 38.8376ZM23.5625 24.4504C23.5625 26.0873 24.8943 27.4191 26.5312 27.4191C28.1682 27.4191 29.5 26.0873 29.5 24.4504C29.5 22.8134 28.1682 21.4816 26.5312 21.4816C24.8943 21.4816 23.5625 22.8134 23.5625 24.4504ZM34.1866 36.8307C34.1863 36.8298 34.186 36.8286 34.186 36.8277C33.4355 33.2141 30.2162 30.5911 26.5312 30.5911C22.8463 30.5911 19.6266 33.2141 18.8765 36.8277C18.8695 36.8628 18.8936 36.8741 18.8936 36.8744C18.8942 36.8744 18.897 36.875 18.9022 36.875H34.1603C34.1613 36.8741 34.1823 36.8582 34.1866 36.8307ZM11.375 36.875H5.125V7.03125H6.6875C7.55054 7.03125 8.25 6.33179 8.25 5.46875V3.125H23.7969V5.46875C23.7969 6.33179 24.4963 7.03125 25.3594 7.03125H26.9219V13.9062C26.9219 14.7693 27.6213 15.4688 28.4844 15.4688C29.3474 15.4688 30.0469 14.7693 30.0469 13.9062V5.46875C30.0469 4.60571 29.3474 3.90625 28.4844 3.90625H26.9219V1.5625C26.9219 0.699463 26.2224 0 25.3594 0H6.6875C5.82446 0 5.125 0.699463 5.125 1.5625V3.90625H3.5625C2.69946 3.90625 2 4.60571 2 5.46875V38.4375C2 39.3005 2.69946 40 3.5625 40H11.375C12.238 40 12.9375 39.3005 12.9375 38.4375C12.9375 37.5745 12.238 36.875 11.375 36.875Z"></path></svg> 