<?xml version="1.0" encoding="UTF-8"?> <svg xmlns="http://www.w3.org/2000/svg" width="40" height="40" viewBox="0 0 40 40" fill="#106CD8"><path d="M40 38.4375C40 39.3005 39.3005 40 38.4375 40H23.125C22.262 40 21.5625 39.3005 21.5625 38.4375V9.29688H20C19.137 9.29688 18.4375 8.59741 18.4375 7.73438V6.17188H9.0625V7.73438C9.0625 8.59741 8.36304 9.29688 7.5 9.29688H5.9375V38.4375C5.9375 39.3005 5.23804 40 4.375 40H1.5625C0.699463 40 0 39.3005 0 38.4375C0 37.5745 0.699463 36.875 1.5625 36.875H2.8125V7.73438C2.8125 6.87134 3.51196 6.17188 4.375 6.17188H5.9375V4.60938C5.9375 3.74634 6.63696 3.04688 7.5 3.04688H12.1875V1.5625C12.1875 0.699463 12.887 0 13.75 0C14.613 0 15.3125 0.699463 15.3125 1.5625V3.04688H20C20.863 3.04688 21.5625 3.74634 21.5625 4.60938V6.17188H23.125C23.1326 6.17188 23.14 6.17279 23.1476 6.1731C23.45 6.1618 23.7592 6.2384 24.035 6.41174L33.9493 12.6471C35.9769 13.9224 37.1875 16.1139 37.1875 18.5095V24.375C37.1875 25.238 36.488 25.9375 35.625 25.9375C34.762 25.9375 34.0625 25.238 34.0625 24.375V18.5095C34.0625 17.1948 33.3981 15.9921 32.2855 15.2924L24.6875 10.5139V36.875H27.7344V34.375C27.7344 33.512 28.4338 32.8125 29.2969 32.8125C30.1599 32.8125 30.8594 33.512 30.8594 34.375V36.875H34.0625V32.1094C34.0625 31.2463 34.762 30.5469 35.625 30.5469C36.488 30.5469 37.1875 31.2463 37.1875 32.1094V36.875H38.4375C39.3005 36.875 40 37.5745 40 38.4375ZM10.5469 18.75C9.68384 18.75 8.98438 19.4495 8.98438 20.3125V21.875C8.98438 22.738 9.68384 23.4375 10.5469 23.4375C11.4099 23.4375 12.1094 22.738 12.1094 21.875V20.3125C12.1094 19.4495 11.4099 18.75 10.5469 18.75ZM16.7969 18.75C15.9338 18.75 15.2344 19.4495 15.2344 20.3125V21.875C15.2344 22.738 15.9338 23.4375 16.7969 23.4375C17.6599 23.4375 18.3594 22.738 18.3594 21.875V20.3125C18.3594 19.4495 17.6599 18.75 16.7969 18.75ZM10.5469 25.7812C9.68384 25.7812 8.98438 26.4807 8.98438 27.3438V28.9062C8.98438 29.7693 9.68384 30.4688 10.5469 30.4688C11.4099 30.4688 12.1094 29.7693 12.1094 28.9062V27.3438C12.1094 26.4807 11.4099 25.7812 10.5469 25.7812ZM16.7969 25.7812C15.9338 25.7812 15.2344 26.4807 15.2344 27.3438V28.9062C15.2344 29.7693 15.9338 30.4688 16.7969 30.4688C17.6599 30.4688 18.3594 29.7693 18.3594 28.9062V27.3438C18.3594 26.4807 17.6599 25.7812 16.7969 25.7812ZM16.7969 32.8125C15.9338 32.8125 15.2344 33.512 15.2344 34.375V35.9375C15.2344 36.8005 15.9338 37.5 16.7969 37.5C17.6599 37.5 18.3594 36.8005 18.3594 35.9375V34.375C18.3594 33.512 17.6599 32.8125 16.7969 32.8125ZM30.8594 20.3125C30.8594 19.4495 30.1599 18.75 29.2969 18.75C28.4338 18.75 27.7344 19.4495 27.7344 20.3125V21.875C27.7344 22.738 28.4338 23.4375 29.2969 23.4375C30.1599 23.4375 30.8594 22.738 30.8594 21.875V20.3125ZM29.2969 25.7812C28.4338 25.7812 27.7344 26.4807 27.7344 27.3438V28.9062C27.7344 29.7693 28.4338 30.4688 29.2969 30.4688C30.1599 30.4688 30.8594 29.7693 30.8594 28.9062V27.3438C30.8594 26.4807 30.1599 25.7812 29.2969 25.7812ZM10.5469 32.8125C9.68384 32.8125 8.98438 33.512 8.98438 34.375V35.9375C8.98438 36.8005 9.68384 37.5 10.5469 37.5C11.4099 37.5 12.1094 36.8005 12.1094 35.9375V34.375C12.1094 33.512 11.4099 32.8125 10.5469 32.8125ZM10.5469 11.7188C9.68384 11.7188 8.98438 12.4182 8.98438 13.2812V14.8438C8.98438 15.7068 9.68384 16.4062 10.5469 16.4062C11.4099 16.4062 12.1094 15.7068 12.1094 14.8438V13.2812C12.1094 12.4182 11.4099 11.7188 10.5469 11.7188ZM16.7969 11.7188C15.9338 11.7188 15.2344 12.4182 15.2344 13.2812V14.8438C15.2344 15.7068 15.9338 16.4062 16.7969 16.4062C17.6599 16.4062 18.3594 15.7068 18.3594 14.8438V13.2812C18.3594 12.4182 17.6599 11.7188 16.7969 11.7188Z"></path></svg> 