<?xml version="1.0" encoding="UTF-8"?> <svg xmlns="http://www.w3.org/2000/svg" width="40" height="40" viewBox="0 0 40 40" fill="#106CD8"><path d="M36.2619 1.05255C34.3567 0.37384 31.8552 0 29.2188 0C26.5823 0 24.0808 0.37384 22.1756 1.05255C19.086 2.15332 18.4375 3.72345 18.4375 4.8468V19.4159C18.2443 19.3344 18.0411 19.2548 17.8244 19.1776C15.9192 18.4988 13.4177 18.125 10.7812 18.125C8.15277 18.125 5.64575 18.5159 3.72192 19.2255C0.645752 20.3598 0 21.9345 0 23.0557C0 23.1061 0.00183105 23.158 0.00457764 23.2101C0.00274658 23.2407 0 23.2709 0 23.302V35.1532C0 36.2766 0.648499 37.8467 3.7381 38.9474C5.64331 39.6262 8.14484 40 10.7812 40C13.4177 40 15.9192 39.6262 17.8244 38.9474C18.7552 38.6157 19.4632 38.2413 20 37.8494C20.5368 38.2413 21.2448 38.6157 22.1756 38.9474C24.0808 39.6262 26.5823 40 29.2188 40C31.8552 40 34.3567 39.6262 36.2619 38.9474C39.3515 37.8467 40 36.2766 40 35.1532V4.8468C40 3.72345 39.3515 2.15332 36.2619 1.05255ZM23.7244 3.8327C25.2414 3.37646 27.1924 3.125 29.2188 3.125C31.2451 3.125 33.1961 3.37646 34.7131 3.8327C35.9729 4.21173 36.5781 4.62646 36.8005 4.8468C36.5781 5.06744 35.9729 5.48218 34.7131 5.86121C33.1961 6.31744 31.2451 6.56891 29.2188 6.56891C27.1924 6.56891 25.2414 6.31744 23.7244 5.86121C22.4646 5.48218 21.8594 5.06744 21.637 4.8468C21.8594 4.62646 22.4646 4.21173 23.7244 3.8327ZM5.28015 21.9949C6.80725 21.5146 8.76068 21.25 10.7812 21.25C12.8076 21.25 14.7586 21.5015 16.2756 21.9577C17.5446 22.3395 18.1497 22.7576 18.3679 22.977C18.1534 23.2016 17.5528 23.6331 16.2823 24.0329C14.7552 24.5132 12.8018 24.7775 10.7812 24.7775C8.75488 24.7775 6.80389 24.5264 5.28687 24.0698C4.01794 23.688 3.41278 23.27 3.19458 23.0508C3.40912 22.8259 4.0097 22.3944 5.28015 21.9949ZM16.2756 36.1673C14.7586 36.6235 12.8076 36.875 10.7812 36.875C8.75488 36.875 6.80389 36.6235 5.28687 36.1673C3.84064 35.7321 3.25684 35.2499 3.125 35.0687V32.6648C3.32306 32.746 3.5321 32.8253 3.75488 32.9019C5.64026 33.5501 8.13568 33.9069 10.7812 33.9069C11.8604 33.9069 12.919 33.848 13.9288 33.7317C14.7861 33.6331 15.401 32.858 15.3021 32.0007C15.2036 31.1435 14.4287 30.5286 13.5712 30.6271C12.6801 30.73 11.741 30.7819 10.7812 30.7819C8.74878 30.7819 6.79993 30.5438 5.29388 30.1111C3.85437 29.6979 3.26355 29.2322 3.125 29.053V26.6116C3.31818 26.6931 3.52142 26.7728 3.7381 26.85C5.64331 27.5287 8.14484 27.9025 10.7812 27.9025C13.4097 27.9025 15.9167 27.5119 17.8406 26.8024C18.0511 26.7245 18.2492 26.6449 18.4375 26.5634V35.0687C18.3057 35.2499 17.7219 35.7321 16.2756 36.1673ZM34.7131 36.1673C33.1961 36.6235 31.2451 36.875 29.2188 36.875C27.1924 36.875 25.2414 36.6235 23.7244 36.1673C22.2781 35.7321 21.6946 35.2499 21.5625 35.0687V32.6788C21.7557 32.7606 21.9589 32.8403 22.1756 32.9175C24.0808 33.5962 26.5823 33.97 29.2188 33.97C30.2979 33.97 31.3599 33.9078 32.3755 33.7845C33.2321 33.6807 33.8425 32.9022 33.7387 32.0456C33.6349 31.189 32.8552 30.578 31.9995 30.6824C31.1084 30.7904 30.1727 30.845 29.2188 30.845C27.1924 30.845 25.2411 30.5936 23.7244 30.1373C22.2775 29.7018 21.694 29.2197 21.5625 29.0387V26.5875C21.7557 26.669 21.9589 26.7487 22.1756 26.8259C24.0808 27.5046 26.582 27.8787 29.2188 27.8787C30.2979 27.8787 31.3599 27.8162 32.3752 27.6932C33.2318 27.5894 33.8425 26.8109 33.7384 25.9543C33.6346 25.0974 32.8552 24.487 31.9995 24.5911C31.1084 24.6988 30.1727 24.7537 29.2184 24.7537C27.1924 24.7537 25.2411 24.5023 23.7244 24.0457C22.2775 23.6105 21.694 23.1284 21.5622 22.9471V20.4309C21.7557 20.5124 21.9589 20.592 22.1756 20.6693C24.0808 21.348 26.582 21.7218 29.2184 21.7218C30.2979 21.7218 31.3599 21.6595 32.3752 21.5366C33.2318 21.4328 33.8422 20.6543 33.7384 19.7974C33.6346 18.9407 32.8552 18.3295 31.9995 18.4344C31.1081 18.5422 30.1727 18.5968 29.2184 18.5968C27.1921 18.5968 25.2411 18.3456 23.7241 17.8891C22.2772 17.4539 21.694 16.9717 21.5622 16.7905V14.4122C21.7554 14.4937 21.9589 14.5734 22.1756 14.6506C24.0808 15.3293 26.5823 15.7031 29.2188 15.7031C30.2979 15.7031 31.3599 15.6409 32.3755 15.5179C33.2321 15.4141 33.8425 14.6353 33.7387 13.7787C33.6349 12.9221 32.8552 12.3114 31.9995 12.4155C31.1084 12.5235 30.1727 12.5781 29.2188 12.5781C27.1924 12.5781 25.2414 12.3267 23.7244 11.8704C22.2775 11.4349 21.694 10.9528 21.5625 10.7718V8.40302C21.7557 8.4845 21.9589 8.56415 22.1756 8.64136C24.0808 9.32007 26.5823 9.69391 29.2188 9.69391C31.8552 9.69391 34.3567 9.32007 36.2619 8.64136C36.4783 8.56415 36.6818 8.4845 36.875 8.40302V35.0687C36.7432 35.2499 36.1594 35.7321 34.7131 36.1673ZM3.04077 6.42212C2.42767 5.81482 2.4234 4.82544 3.03101 4.21265L6.06079 1.1554C6.79901 0.410461 7.78168 0 8.82782 0C9.87396 0 10.8566 0.410156 11.5948 1.15509L14.6252 4.21265C15.2328 4.82544 15.2286 5.81482 14.6155 6.42212C14.0027 7.02972 13.0133 7.02545 12.406 6.41235L10.3906 4.37927V13.4375C10.3906 14.3005 9.69116 15 8.82812 15C7.96509 15 7.26562 14.3005 7.26562 13.4375V4.37897L5.25024 6.41235C4.94507 6.72058 4.54285 6.875 4.14062 6.875C3.74298 6.875 3.34534 6.72424 3.04077 6.42212Z"></path></svg> 