<?xml version="1.0" encoding="UTF-8"?> <svg xmlns="http://www.w3.org/2000/svg" width="40" height="40" viewBox="0 0 40 40" fill="#106CD8"><path d="M11.5768 21.5982H19.8825C20.744 21.5982 21.442 20.9 21.442 20.0388V3.51258C22.8455 4.08631 23.956 5.34302 24.7095 6.44318C26.2805 8.73749 27.4237 12.0081 27.9285 15.6531C28.0466 16.5064 28.8339 17.1024 29.6869 16.984C30.5402 16.8659 31.1359 16.0785 31.0178 15.2252C30.4663 11.2427 29.2056 7.60621 27.4579 4.94202C31.4447 6.91498 34.5776 10.441 36.0043 14.8999C36.2668 15.7202 37.1448 16.1725 37.9651 15.91C38.7851 15.6476 39.2374 14.7696 38.9749 13.9493C37.6944 9.94782 35.2246 6.50452 31.8329 3.9914C28.3777 1.43097 24.2728 0.078125 19.9609 0.078125C19.9435 0.078125 19.9268 0.078125 19.9097 0.078125C19.902 0.078125 19.8944 0.0784302 19.8868 0.0784302C19.8856 0.0784302 19.884 0.078125 19.8825 0.078125C19.8807 0.078125 19.8792 0.0784302 19.8773 0.0784302C19.8416 0.0784302 19.8059 0.0784302 19.7702 0.0790405C8.84796 0.18158 -0.00518571 9.10462 2.27897e-06 20.0485C0.00183333 24.1394 1.23291 28.0713 3.55988 31.4188C5.83252 34.6884 8.98621 37.182 12.6801 38.6295C12.9901 38.7509 13.316 38.8114 13.6417 38.8111C14.0646 38.8111 14.4864 38.7094 14.87 38.508C15.5524 38.1497 16.0449 37.5141 16.221 36.7633C16.4087 35.9622 16.2088 35.1065 15.687 34.4748C13.3209 31.6107 11.8243 26.8762 11.5768 21.5982ZM18.3231 3.52295V18.4793H11.5765C11.767 14.411 12.7005 10.6528 14.2538 7.76612C15.4129 5.61249 16.8408 4.13971 18.3231 3.52295ZM12.2116 5.0885C11.9684 5.46814 11.7334 5.86823 11.5073 6.28815C9.71863 9.61243 8.65265 13.8941 8.4549 18.4793H3.19092C3.72895 12.6508 7.25128 7.6706 12.2116 5.0885ZM3.1897 21.5982H8.4552C8.68225 26.7996 10.0385 31.6074 12.2235 35.0055C7.099 32.3697 3.71155 27.349 3.1897 21.5982ZM34.8767 35.0385C33.219 36.6959 31.4371 37.6978 29.5807 38.0161C29.4916 38.0313 29.4028 38.039 29.3152 38.039C28.5696 38.039 27.9105 37.5025 27.7802 36.7429C27.6346 35.8939 28.2047 35.0879 29.0537 34.9423C30.2615 34.7351 31.4789 34.0253 32.6715 32.833C35.9534 29.552 36.684 24.2456 36.8399 21.6419C34.231 21.8021 28.9142 22.5388 25.6464 25.806C24.1718 27.28 23.4598 28.732 23.4692 30.2451C23.4717 30.6363 23.5254 31.008 23.6063 31.3535C25.603 29.3064 27.7945 27.5769 30.1651 26.1817C30.9073 25.7443 31.8631 25.9921 32.2998 26.7343C32.7368 27.4768 32.4893 28.4323 31.7471 28.8693C27.63 31.2927 24.2322 34.6945 21.3593 39.2691C21.0629 39.7409 20.5557 39.9994 20.0369 39.9994C19.7537 39.9994 19.4669 39.9222 19.2093 39.7605C18.4799 39.3024 18.2599 38.3399 18.718 37.6105C19.5154 36.3407 20.3632 35.1435 21.2579 34.0198C20.8405 33.1253 20.3604 31.8384 20.3503 30.2649C20.3357 27.9077 21.3754 25.6656 23.4412 23.6005C28.8498 18.1931 38.1058 18.4702 38.4973 18.4848C39.357 18.5166 40.0287 19.2386 39.9982 20.0986C39.9979 20.1059 39.9976 20.1132 39.9973 20.1206C40.0217 21.3477 39.9988 29.9176 34.8767 35.0385Z"></path></svg> 