<?xml version="1.0" encoding="UTF-8"?> <svg xmlns="http://www.w3.org/2000/svg" width="60" height="60" viewBox="0 0 60 60" fill="none"><g clip-path="url(#clip0)"><path fill-rule="evenodd" clip-rule="evenodd" d="M58 39.1716L41 56.1716V52V45V44H40H32V46H39V51H32V53H39V58H25V45V44H24H9V46H23V58H2V46H5V44H2V2H58V39.1716ZM41 59L60 40V2V0H58H2H0V2V44V45V46V58V60H2H23H24H25H39H40L41 59ZM15 31V35H17V31H15ZM39 31V35H41V31H39ZM17 14V10H15V14H17ZM41 14V10H39V14H41Z" fill="#101010" fill-opacity="0.7"></path></g><defs><clipPath id="clip0"><rect width="60" height="60" fill="white"></rect></clipPath></defs></svg> 